<svg width="64" height="64" viewBox="0 0 64 64" fill="none" xmlns="http://www.w3.org/2000/svg">
<path d="M14.1858 26.1482H31.7411V11.5188H14.1858V26.1482ZM8.33398 58.333V11.5188C8.33398 9.90953 8.90746 8.53241 10.0544 7.38742C11.2014 6.24242 12.5785 5.66894 14.1858 5.66699H31.7411C33.3503 5.66699 34.7284 6.24047 35.8754 7.38742C37.0223 8.53436 37.5948 9.91148 37.5929 11.5188V32H41.2502C42.6644 32 43.8718 32.5003 44.8725 33.501C45.8732 34.5016 46.3725 35.7081 46.3706 37.1203V50.6525C46.3706 51.4815 46.7119 52.2374 47.3946 52.9201C48.0773 53.6028 48.8332 53.9442 49.6622 53.9442C50.5399 53.9442 51.3085 53.6028 51.9678 52.9201C52.6271 52.2374 52.9558 51.4815 52.9538 50.6525V23.2223H52.2223C51.3933 23.2223 50.6989 22.9414 50.1391 22.3797C49.5793 21.8179 49.2984 21.1235 49.2964 20.2964V14.4447H50.7594V10.0558H53.6853V14.4447H56.6112V10.0558H59.5371V14.4447H61V20.2964C61 21.1254 60.7191 21.8208 60.1573 22.3826C59.5956 22.9444 58.9012 23.2243 58.0741 23.2223H57.3426V50.6525C57.3426 52.7007 56.5985 54.4933 55.1102 56.0303C53.6219 57.5674 51.8069 58.335 49.6651 58.333C47.5682 58.333 45.7639 57.5645 44.2522 56.0274C42.7405 54.4903 41.9846 52.6987 41.9846 50.6525V37.1203C41.9846 36.8765 41.9242 36.6941 41.8032 36.5732C41.6823 36.4522 41.4989 36.3908 41.2532 36.3888H37.5929V58.333H8.33398ZM21.5005 52.4812L28.8152 40.7777H24.4264V32L17.1117 43.7036H21.5005V52.4812Z" fill="#CDCDCD"/>
</svg>
