<svg width="64" height="64" viewBox="0 0 64 64" fill="none" xmlns="http://www.w3.org/2000/svg">
<g clip-path="url(#clip0_677_2790)">
<path d="M58.8981 22.625C58.0981 22.625 56.1135 22.625 53.875 22.625C53.875 19.868 51.632 17.625 48.875 17.625H47.7254L43.0853 9.50488C42.8628 9.11538 42.4485 8.875 42 8.875H39.5V2.625H42C42.6904 2.625 43.25 2.06525 43.25 1.375C43.25 0.68475 42.6904 0.125 42 0.125H34.5C33.8096 0.125 33.25 0.684625 33.25 1.375C33.25 2.06537 33.8096 2.625 34.5 2.625H37V8.875H27V2.625H29.5C30.1904 2.625 30.75 2.06525 30.75 1.375C30.75 0.68475 30.1904 0.125 29.5 0.125H22C21.3096 0.125 20.75 0.684625 20.75 1.375C20.75 2.06537 21.3096 2.625 22 2.625H24.5V8.875H22C21.5515 8.875 21.1373 9.11538 20.9146 9.50488L16.2746 17.625H15.125C12.368 17.625 10.125 19.868 10.125 22.625H6.375C5.68463 22.625 5.125 23.1846 5.125 23.875V28.875H1.375C0.684625 28.875 0.125 29.4346 0.125 30.125V37.625C0.125 38.3153 0.684625 38.875 1.375 38.875H5.125V43.875C5.125 44.5653 5.68463 45.125 6.375 45.125H10.125C10.125 47.1183 11.2978 48.8421 12.9891 49.6447L7.72312 62.1395C7.37512 62.9654 7.98413 63.875 8.875 63.875H17.625C18.0185 63.875 18.3889 63.6899 18.625 63.375L22 58.875H42L45.375 63.375C45.6111 63.6899 45.9816 63.875 46.375 63.875H55.125C56.0213 63.875 56.6227 62.9604 56.2769 62.1395L51.0109 49.6447C52.7023 48.8421 53.875 47.1183 53.875 45.125H58.875C61.632 45.125 63.875 42.882 63.875 40.125V27.625C63.875 24.8757 61.6446 22.6376 58.8981 22.625ZM61.375 30.125V32.625H53.875V30.125H61.375ZM53.875 35.125H61.375V37.625H53.875V35.125ZM58.875 25.125C60.2535 25.125 61.375 26.2465 61.375 27.625H53.875V25.125H58.875ZM22.7254 11.375H41.2746L44.846 17.625H19.154L22.7254 11.375ZM7.625 42.625C7.625 37.6922 7.625 31.1012 7.625 25.125H10.125V42.625H7.625ZM47 61.375L43.625 56.875C43.3889 56.5601 43.0184 56.375 42.625 56.375H21.375C20.9815 56.375 20.6111 56.5601 20.375 56.875L17 61.375H10.7583L15.4996 50.125H48.5004L53.2417 61.375H47ZM48.875 47.625H15.125C13.7465 47.625 12.625 46.5035 12.625 45.125H18.875C19.5654 45.125 20.125 44.5653 20.125 43.875C20.125 43.1847 19.5654 42.625 18.875 42.625H12.625V40.125H18.875C19.5654 40.125 20.125 39.5653 20.125 38.875C20.125 38.1847 19.5654 37.625 18.875 37.625H12.625V35.125H18.875C19.5654 35.125 20.125 34.5653 20.125 33.875C20.125 33.1847 19.5654 32.625 18.875 32.625H12.625V30.125H18.875C19.5654 30.125 20.125 29.5654 20.125 28.875C20.125 28.1846 19.5654 27.625 18.875 27.625H12.625V25.125H18.875C19.5654 25.125 20.125 24.5654 20.125 23.875C20.125 23.1846 19.5654 22.625 18.875 22.625H12.625C12.625 21.2465 13.7465 20.125 15.125 20.125C15.1447 20.125 48.894 20.125 48.875 20.125C50.2535 20.125 51.375 21.2465 51.375 22.625C48.6726 22.625 46.0866 22.625 45.125 22.625C44.4346 22.625 43.875 23.1846 43.875 23.875C43.875 24.5654 44.4346 25.125 45.125 25.125H51.375V27.625H45.125C44.4346 27.625 43.875 28.1846 43.875 28.875C43.875 29.5654 44.4346 30.125 45.125 30.125H51.375V32.625H45.125C44.4346 32.625 43.875 33.1847 43.875 33.875C43.875 34.5653 44.4346 35.125 45.125 35.125H51.375V37.625H45.125C44.4346 37.625 43.875 38.1847 43.875 38.875C43.875 39.5653 44.4346 40.125 45.125 40.125H51.375V42.625H45.125C44.4346 42.625 43.875 43.1847 43.875 43.875C43.875 44.5653 44.4346 45.125 45.125 45.125H51.375C51.375 46.5035 50.2535 47.625 48.875 47.625ZM58.875 42.625H53.875V40.125H61.375C61.375 41.5035 60.2535 42.625 58.875 42.625Z" fill="#CDCDCD"/>
<path d="M40.1252 28.875H34.1118L36.2521 24.4159C36.6499 23.587 36.0446 22.625 35.1252 22.625H28.8752C28.3812 22.625 27.9336 22.9159 27.7329 23.3674L22.7329 34.6174C22.3659 35.4432 22.9716 36.375 23.8752 36.375H28.4681L26.4233 43.5316C26.2638 44.09 26.5098 44.6846 27.0172 44.9671C27.5229 45.2486 28.1584 45.1469 28.5502 44.7158L41.0502 30.9657C41.7794 30.1636 41.2071 28.875 40.1252 28.875Z" fill="#CDCDCD"/>
</g>
<defs>
<clipPath id="clip0_677_2790">
<rect width="64" height="64" fill="white"/>
</clipPath>
</defs>
</svg>
