<svg width="64" height="64" viewBox="0 0 64 64" fill="none" xmlns="http://www.w3.org/2000/svg">
<path d="M11.5748 2.625C7.5748 2.625 3.5698 5.625 3.5698 11.625L11.5748 27.625L19.5748 11.625C19.5748 5.625 15.5748 2.625 11.5748 2.625ZM46.8623 7.5C45.9998 7.53625 45.1623 7.7 44.4623 7.85L44.9373 10.05C45.6373 9.89375 46.3623 9.795 46.9748 9.75L46.8623 7.5ZM11.5748 7.625C13.7873 7.625 15.5748 9.41625 15.5748 11.625C15.5748 13.8375 13.7873 15.625 11.5748 15.625C9.36606 15.625 7.5748 13.8375 7.5748 11.625C7.5748 9.41625 9.36606 7.625 11.5748 7.625ZM49.3498 7.65L48.9748 9.8625C49.5873 9.99125 50.1998 10.1525 50.7373 10.475L51.8248 8.5C51.0623 8.09375 50.2123 7.72875 49.3498 7.65ZM42.1623 8.4875C41.3998 8.785 40.6373 9.05125 39.9873 9.3125L40.8748 11.375C41.5623 11.0825 42.2873 10.8275 42.8998 10.6125L42.1623 8.4875ZM53.8748 10.1625L52.1623 11.625C52.6123 12.14 52.9623 12.775 53.2373 13.2875L55.2498 12.275C54.8248 11.4563 54.4498 10.8363 53.8748 10.1625ZM37.8998 10.275C37.1373 10.6638 36.5123 11.01 35.8373 11.35L36.9373 13.325C37.5873 12.95 38.2998 12.5875 38.8748 12.3L37.8998 10.275ZM33.8623 12.5125C33.1998 12.9 32.5498 13.2875 31.9123 13.7125L33.1373 15.5875C33.7498 15.1875 34.3873 14.8125 35.0123 14.4375L33.8623 12.5125ZM56.0248 14.75C55.2873 14.875 54.5373 14.9625 53.7998 15.05C53.8498 15.675 53.8123 16.35 53.6873 16.875L55.8748 17.3875C55.9998 16.4875 56.1123 15.5625 56.0248 14.75ZM30.0123 14.9625C29.3873 15.3875 28.7748 15.825 28.1498 16.25L29.4498 18.0875C30.0498 17.65 30.6623 17.2375 31.2748 16.8125L30.0123 14.9625ZM26.3123 17.6C25.6873 18.05 25.0373 18.55 24.4998 18.9625L25.8623 20.75C26.5498 20.25 27.0248 19.875 27.6498 19.4125L26.3123 17.6ZM52.9373 18.6C52.5623 19.175 52.1248 19.75 51.6873 20.1875L53.3248 21.75C53.8623 21.1125 54.4373 20.4625 54.8373 19.8125L52.9373 18.6ZM22.7123 20.3625C22.0998 20.8375 21.4873 21.325 20.9498 21.775L22.3748 23.5125C22.9623 23.025 23.5623 22.525 24.1123 22.125L22.7123 20.3625ZM50.1373 21.625C49.5623 22.0875 48.9623 22.5375 48.4123 22.9125L49.6998 24.7625C50.3623 24.3125 51.0123 23.825 51.5748 23.375L50.1373 21.625ZM19.2123 23.2375C18.6248 23.7125 18.0623 24.2125 17.4873 24.7L18.9498 26.4125C19.5123 25.925 20.0748 25.4375 20.6498 24.9625L19.2123 23.2375ZM46.5748 24.1125C45.9373 24.4875 45.2748 24.875 44.6748 25.2L45.7498 27.1875C46.4248 26.775 47.1873 26.4125 47.7498 26.0375L46.5748 24.1125ZM15.7748 26.1875C15.2123 26.6875 14.6623 27.1875 14.0998 27.7L15.6123 29.375C16.1623 28.875 16.7248 28.375 17.2748 27.875L15.7748 26.1875ZM42.7123 26.2375C42.0498 26.5625 41.3873 26.9 40.7248 27.225L41.6873 29.25C42.4623 28.875 43.0373 28.5625 43.7373 28.2375L42.7123 26.2375ZM38.7123 28.1625C38.0248 28.475 37.3623 28.775 36.6623 29.0625L37.5748 31.125C38.2623 30.825 38.9498 30.5125 39.6373 30.2L38.7123 28.1625ZM12.4498 29.25C11.8123 29.8125 11.3686 30.25 10.7873 30.8125L12.3748 32.4375C12.9623 31.875 13.4373 31.3875 13.9873 30.9125L12.4498 29.25ZM34.6123 29.975C33.9248 30.2625 33.2373 30.5625 32.5498 30.85L33.4248 32.9375C34.1248 32.65 34.8123 32.35 35.4998 32.05L34.6123 29.975ZM30.4748 31.725C29.7873 32.025 29.0998 32.325 28.3998 32.6L29.2748 34.6875C29.9623 34.4 30.6623 34.1 31.3498 33.8125L30.4748 31.725ZM53.5748 32.625C49.5748 32.625 45.5748 35.625 45.5748 41.625L53.5748 57.625L61.5748 41.625C61.5748 35.625 57.5748 32.625 53.5748 32.625ZM26.3248 33.475C25.6123 33.8 24.8623 34.1 24.2498 34.3625L25.1373 36.4375C25.8748 36.125 26.5748 35.825 27.1998 35.55L26.3248 33.475ZM22.1748 35.25C21.4998 35.5625 20.7123 35.9125 20.1123 36.1875L21.0373 38.2375C21.7748 37.9125 22.4248 37.5875 23.0748 37.3125L22.1748 35.25ZM18.0498 37.125C17.3498 37.4625 16.6248 37.8125 15.9998 38.125L17.0123 40.1375C17.6873 39.7875 18.3873 39.4625 18.9998 39.1625L18.0498 37.125ZM53.5748 37.625C55.7873 37.625 57.5748 39.4125 57.5748 41.625C57.5748 43.8375 55.7873 45.625 53.5748 45.625C51.3623 45.625 49.5748 43.8375 49.5748 41.625C49.5748 39.4125 51.3623 37.625 53.5748 37.625ZM13.9748 39.1625C13.3123 39.525 12.6498 39.9 11.9748 40.2875L13.0998 42.2375C13.7373 41.8625 14.3873 41.5125 15.0373 41.1625L13.9748 39.1625ZM10.0123 41.5C9.31106 41.9 8.63356 42.4375 8.04981 42.825L9.41231 44.625C10.0336 44.175 10.7023 43.7125 11.2373 43.3875L10.0123 41.5ZM6.27481 44.325C5.67481 44.875 5.08355 45.5125 4.6248 46.05L6.33731 47.5125C6.81856 46.925 7.23731 46.4875 7.79981 45.9875L6.27481 44.325ZM33.4998 44.4875L33.6998 46.725C34.3498 46.6125 34.9998 46.6875 35.6498 46.7875L36.0373 44.575C35.2123 44.45 34.3373 44.3625 33.4998 44.4875ZM28.8498 45.7375L29.6998 47.825C30.3498 47.5375 31.0248 47.3125 31.7123 47.1C31.4748 46.3875 31.2998 45.6625 31.1123 44.9375C30.3248 45.1625 29.5373 45.4625 28.8498 45.7375ZM38.5373 45.625L37.2623 47.475C37.7873 47.8625 38.2998 48.275 38.7123 48.7875L40.4123 47.3125C39.7748 46.6625 39.2873 46.05 38.5373 45.625ZM26.7248 46.75C26.0373 47.1 25.3748 47.5 24.7123 47.8875L25.8498 49.825C26.4998 49.475 27.1373 49.0625 27.7748 48.725L26.7248 46.75ZM3.25105 48.125C2.87355 48.9375 2.5673 49.8125 2.4248 50.5875L4.6373 50.975C4.7723 50.2625 4.96606 49.75 5.2498 49.1375C4.56356 48.8375 3.90855 48.475 3.25105 48.125ZM22.7623 49.1C22.1248 49.5125 21.4998 49.925 20.8748 50.35L22.1248 52.225C22.7498 51.8125 23.3623 51.3875 23.9873 50.975L22.7623 49.1ZM41.8498 49.25L39.9623 50.475C40.3623 51.075 40.7498 51.7 41.1123 52.3375L43.0623 51.2125C42.6248 50.5125 42.3123 49.8875 41.8498 49.25ZM19.0123 51.625C18.3873 52.0375 17.7623 52.4375 17.1498 52.875L18.3998 54.75C18.9998 54.3125 19.6373 53.9 20.2748 53.475L19.0123 51.625ZM4.6623 52.8125C3.93855 52.9625 3.20855 53.0875 2.48105 53.225C2.6123 54.1 2.96355 54.95 3.28105 55.625L5.3123 54.65C5.04105 54.025 4.78356 53.375 4.6623 52.8125ZM44.1748 53.1625L42.2248 54.2875C42.6123 54.9625 43.0623 55.6875 43.4248 56.2625L45.3123 55.05C44.8873 54.3875 44.5248 53.7625 44.1748 53.1625ZM15.2998 54.1C14.6748 54.4875 14.0623 54.8625 13.4123 55.225L14.5248 57.1875C15.1873 56.8 15.8498 56.4125 16.4873 56L15.2998 54.1ZM6.38731 56.1375L4.8498 57.7875C5.54481 58.45 6.40231 58.8875 7.33731 59.0875L7.83731 56.9C7.28231 56.7875 6.76356 56.5125 6.38731 56.1375ZM11.5123 56.175C10.8861 56.4625 10.2361 56.6875 9.56231 56.825L10.0748 59.025C10.8773 58.8625 11.6323 58.5625 12.3873 58.25L11.5123 56.175ZM46.5498 56.775L44.8123 58.1875C45.3498 58.85 46.0123 59.4875 46.5873 59.9375L47.9748 58.1625C47.4248 57.7375 46.9498 57.225 46.5498 56.775ZM49.5623 58.9625L48.9998 61.15C49.9873 61.35 50.7248 61.4125 51.6498 61.3125L51.3748 59.075C50.7623 59.175 50.1623 59.1125 49.5623 58.9625Z" fill="#CDCDCD"/>
</svg>
